<svg xmlns="http://www.w3.org/2000/svg" viewBox="0 0 135.25 45.93"><defs><style>.cls-1{fill:#65c8d0;}.cls-2{fill:#838bc5;}.cls-3{fill:#ba9bc9;}</style></defs><g id="Layer_2" data-name="Layer 2"><g id="Layer_1-2" data-name="Layer 1"><path class="cls-1" d="M8.77,15.9,7.49,17.47V22.4H0V0H7.49V7.3h.22L13.15,0h8.42l-8,10L22.08,22.4H13.25L8.93,15.9Z"/><path class="cls-2" d="M37.12,20.16h-7L29.5,22.4H22.14L28.61,3h10L45.12,22.4H37.76ZM35.68,15,33.79,8.22h-.32L31.58,15Z"/><path class="cls-3" d="M63.58,17.21V22.4H46.46V3H53V17.21Z"/><path class="cls-1" d="M64.22,12.7a10,10,0,1,1,10,10A10,10,0,0,1,64.22,12.7Zm13.54,0a3.54,3.54,0,1,0-3.52,3.55A3.51,3.51,0,0,0,77.76,12.67Z"/><path class="cls-2" d="M14.91,30H8.49V24.32H28.56V30H22.14v15.9H14.91Z"/><path class="cls-3" d="M30.57,27.25H36.9V45.93H30.57Z"/><path class="cls-1" d="M39.68,27.25H46.1l4.63,5.9H51l4.63-5.9H62V45.93H55.7V35.56h-.19l-4.5,5H50.7l-4.51-5H46V45.93H39.68Z"/><path class="cls-2" d="M71.29,32.25v1.82H82.72v5H71.29v1.85H82.72v5H65V27.25H82.72v5Z"/><path class="cls-1" d="M92.59,32.57c-3.07-4.57,9.37-18.35,14-21.44a10,10,0,0,1,11.17,16.59C113.13,30.81,95.69,37.16,92.59,32.57ZM115,17.42a3.54,3.54,0,1,0-.94,4.91A3.52,3.52,0,0,0,115,17.42Z"/><path class="cls-2" d="M107.83,41.35c-5.41-1-6.49-19.54-5.47-25A10,10,0,0,1,122,20.05C121,25.5,113.27,42.37,107.83,41.35Zm5-26.61a3.54,3.54,0,1,0,2.84,4.12A3.51,3.51,0,0,0,112.79,14.74Z"/><path class="cls-3" d="M135.21,12.92c.93,5.42-16.06,12.89-21.51,13.83a10,10,0,0,1-3.4-19.7C115.76,6.11,134.27,7.46,135.21,12.92Zm-26.67,4.62a3.54,3.54,0,1,0,2.86-4.09A3.51,3.51,0,0,0,108.54,17.54Z"/></g></g></svg>