<svg xmlns="http://www.w3.org/2000/svg" viewBox="0 0 43.14 34.63"><defs><style>.cls-1{fill:#65c8d0;}.cls-2{fill:#838bc5;}.cls-3{fill:#ba9bc9;}</style></defs><g id="Layer_2" data-name="Layer 2"><g id="Layer_1-2" data-name="Layer 1"><path class="cls-1" d="M.48,25.79c-3.07-4.56,9.37-18.34,14-21.43A10,10,0,0,1,25.61,21C21,24,3.58,30.39.48,25.79ZM22.92,10.65A3.54,3.54,0,1,0,22,15.56,3.52,3.52,0,0,0,22.92,10.65Z"/><path class="cls-2" d="M15.72,34.58c-5.41-1-6.49-19.54-5.47-25a10,10,0,0,1,19.66,3.69C28.88,18.72,21.16,35.6,15.72,34.58ZM20.68,8a3.54,3.54,0,1,0,2.84,4.11A3.51,3.51,0,0,0,20.68,8Z"/><path class="cls-3" d="M43.1,6.15C44,11.57,27,19,21.58,20A10,10,0,0,1,18.19.27C23.65-.67,42.16.69,43.1,6.15ZM16.43,10.77a3.54,3.54,0,1,0,2.86-4.09A3.49,3.49,0,0,0,16.43,10.77Z"/></g></g></svg>